<mxfile host="app.diagrams.net" modified="2021-10-14T13:48:20.186Z" agent="5.0 (Windows NT 6.3; Win64; x64) AppleWebKit/537.36 (KHTML, like Gecko) Chrome/94.0.4606.81 Safari/537.36" etag="LWc_hOIo554G9APttkbz" version="15.5.1" type="github">
  <diagram id="gBECMRckOSTVkWnukKZH" name="Page-1">
    <mxGraphModel dx="3472" dy="1800" grid="1" gridSize="10" guides="1" tooltips="1" connect="1" arrows="1" fold="1" page="1" pageScale="1" pageWidth="3300" pageHeight="4681" math="0" shadow="0">
      <root>
        <mxCell id="0" />
        <mxCell id="1" parent="0" />
        <mxCell id="jg6PKihhKoiaYJXrddcp-2" value="Fahrgestellnummer" style="rounded=0;whiteSpace=wrap;html=1;" vertex="1" parent="1">
          <mxGeometry x="1180" y="690" width="120" height="60" as="geometry" />
        </mxCell>
        <mxCell id="jg6PKihhKoiaYJXrddcp-4" value="Kilometerstand" style="rounded=0;whiteSpace=wrap;html=1;" vertex="1" parent="1">
          <mxGeometry x="1180" y="770" width="120" height="60" as="geometry" />
        </mxCell>
        <mxCell id="jg6PKihhKoiaYJXrddcp-6" value="Farbe" style="rounded=0;whiteSpace=wrap;html=1;" vertex="1" parent="1">
          <mxGeometry x="1180" y="1010" width="120" height="60" as="geometry" />
        </mxCell>
        <mxCell id="jg6PKihhKoiaYJXrddcp-7" value="Motorart" style="rounded=0;whiteSpace=wrap;html=1;" vertex="1" parent="1">
          <mxGeometry x="1180" y="930" width="120" height="60" as="geometry" />
        </mxCell>
        <mxCell id="jg6PKihhKoiaYJXrddcp-8" value="Leistung" style="rounded=0;whiteSpace=wrap;html=1;" vertex="1" parent="1">
          <mxGeometry x="1180" y="850" width="120" height="60" as="geometry" />
        </mxCell>
        <mxCell id="jg6PKihhKoiaYJXrddcp-9" value="" style="rhombus;whiteSpace=wrap;html=1;" vertex="1" parent="1">
          <mxGeometry x="1060" y="680" width="80" height="80" as="geometry" />
        </mxCell>
        <mxCell id="jg6PKihhKoiaYJXrddcp-10" value="" style="rhombus;whiteSpace=wrap;html=1;" vertex="1" parent="1">
          <mxGeometry x="1050" y="560" width="80" height="80" as="geometry" />
        </mxCell>
        <mxCell id="jg6PKihhKoiaYJXrddcp-11" value="" style="endArrow=none;html=1;rounded=0;exitX=1;exitY=0.5;exitDx=0;exitDy=0;entryX=0;entryY=0.5;entryDx=0;entryDy=0;" edge="1" parent="1" source="jg6PKihhKoiaYJXrddcp-1" target="jg6PKihhKoiaYJXrddcp-9">
          <mxGeometry width="50" height="50" relative="1" as="geometry">
            <mxPoint x="1260" y="770" as="sourcePoint" />
            <mxPoint x="1310" y="720" as="targetPoint" />
          </mxGeometry>
        </mxCell>
        <mxCell id="jg6PKihhKoiaYJXrddcp-13" value="" style="endArrow=none;html=1;rounded=0;entryX=0;entryY=0.5;entryDx=0;entryDy=0;exitX=1;exitY=0.5;exitDx=0;exitDy=0;" edge="1" parent="1" source="jg6PKihhKoiaYJXrddcp-10" target="jg6PKihhKoiaYJXrddcp-3">
          <mxGeometry width="50" height="50" relative="1" as="geometry">
            <mxPoint x="1150" y="610" as="sourcePoint" />
            <mxPoint x="1190" y="610" as="targetPoint" />
          </mxGeometry>
        </mxCell>
        <mxCell id="jg6PKihhKoiaYJXrddcp-14" value="" style="endArrow=none;html=1;rounded=0;entryX=0;entryY=0.5;entryDx=0;entryDy=0;exitX=1;exitY=0.5;exitDx=0;exitDy=0;" edge="1" parent="1" source="jg6PKihhKoiaYJXrddcp-1" target="jg6PKihhKoiaYJXrddcp-10">
          <mxGeometry width="50" height="50" relative="1" as="geometry">
            <mxPoint x="1150" y="730" as="sourcePoint" />
            <mxPoint x="1190" y="730" as="targetPoint" />
          </mxGeometry>
        </mxCell>
        <mxCell id="jg6PKihhKoiaYJXrddcp-15" value="AutoKm" style="rhombus;whiteSpace=wrap;html=1;" vertex="1" parent="1">
          <mxGeometry x="1060" y="780" width="80" height="40" as="geometry" />
        </mxCell>
        <mxCell id="jg6PKihhKoiaYJXrddcp-16" value="AutoLeistung" style="rhombus;whiteSpace=wrap;html=1;" vertex="1" parent="1">
          <mxGeometry x="1060" y="860" width="80" height="40" as="geometry" />
        </mxCell>
        <mxCell id="jg6PKihhKoiaYJXrddcp-17" value="AutoMotor" style="rhombus;whiteSpace=wrap;html=1;" vertex="1" parent="1">
          <mxGeometry x="1060" y="940" width="80" height="40" as="geometry" />
        </mxCell>
        <mxCell id="jg6PKihhKoiaYJXrddcp-19" value="AutoFarbe" style="rhombus;whiteSpace=wrap;html=1;" vertex="1" parent="1">
          <mxGeometry x="1060" y="1020" width="80" height="40" as="geometry" />
        </mxCell>
        <mxCell id="jg6PKihhKoiaYJXrddcp-20" value="" style="endArrow=none;html=1;rounded=0;exitX=1;exitY=0.5;exitDx=0;exitDy=0;entryX=0;entryY=0.5;entryDx=0;entryDy=0;" edge="1" parent="1" source="jg6PKihhKoiaYJXrddcp-1" target="jg6PKihhKoiaYJXrddcp-15">
          <mxGeometry width="50" height="50" relative="1" as="geometry">
            <mxPoint x="1030" y="610" as="sourcePoint" />
            <mxPoint x="1070" y="730" as="targetPoint" />
          </mxGeometry>
        </mxCell>
        <mxCell id="jg6PKihhKoiaYJXrddcp-21" value="" style="endArrow=none;html=1;rounded=0;exitX=1;exitY=0.5;exitDx=0;exitDy=0;entryX=0;entryY=0.5;entryDx=0;entryDy=0;" edge="1" parent="1" source="jg6PKihhKoiaYJXrddcp-1" target="jg6PKihhKoiaYJXrddcp-16">
          <mxGeometry width="50" height="50" relative="1" as="geometry">
            <mxPoint x="1030" y="610" as="sourcePoint" />
            <mxPoint x="1070" y="810" as="targetPoint" />
          </mxGeometry>
        </mxCell>
        <mxCell id="jg6PKihhKoiaYJXrddcp-22" value="" style="endArrow=none;html=1;rounded=0;exitX=1;exitY=0.5;exitDx=0;exitDy=0;entryX=0;entryY=0.5;entryDx=0;entryDy=0;" edge="1" parent="1" source="jg6PKihhKoiaYJXrddcp-1" target="jg6PKihhKoiaYJXrddcp-19">
          <mxGeometry width="50" height="50" relative="1" as="geometry">
            <mxPoint x="1030" y="610" as="sourcePoint" />
            <mxPoint x="1070" y="890" as="targetPoint" />
          </mxGeometry>
        </mxCell>
        <mxCell id="jg6PKihhKoiaYJXrddcp-23" value="" style="endArrow=none;html=1;rounded=0;exitX=1;exitY=0.5;exitDx=0;exitDy=0;entryX=0;entryY=0.5;entryDx=0;entryDy=0;" edge="1" parent="1" source="jg6PKihhKoiaYJXrddcp-1" target="jg6PKihhKoiaYJXrddcp-17">
          <mxGeometry width="50" height="50" relative="1" as="geometry">
            <mxPoint x="1040" y="620" as="sourcePoint" />
            <mxPoint x="1080" y="900" as="targetPoint" />
          </mxGeometry>
        </mxCell>
        <mxCell id="jg6PKihhKoiaYJXrddcp-24" value="" style="endArrow=none;html=1;rounded=0;" edge="1" parent="1" source="jg6PKihhKoiaYJXrddcp-9" target="jg6PKihhKoiaYJXrddcp-2">
          <mxGeometry width="50" height="50" relative="1" as="geometry">
            <mxPoint x="1140" y="720" as="sourcePoint" />
            <mxPoint x="1180" y="720" as="targetPoint" />
          </mxGeometry>
        </mxCell>
        <mxCell id="jg6PKihhKoiaYJXrddcp-25" value="" style="endArrow=none;html=1;rounded=0;entryX=0;entryY=0.5;entryDx=0;entryDy=0;exitX=1;exitY=0.5;exitDx=0;exitDy=0;" edge="1" parent="1" source="jg6PKihhKoiaYJXrddcp-16" target="jg6PKihhKoiaYJXrddcp-8">
          <mxGeometry width="50" height="50" relative="1" as="geometry">
            <mxPoint x="1150" y="730" as="sourcePoint" />
            <mxPoint x="1190" y="730" as="targetPoint" />
          </mxGeometry>
        </mxCell>
        <mxCell id="jg6PKihhKoiaYJXrddcp-26" value="" style="endArrow=none;html=1;rounded=0;entryX=0;entryY=0.5;entryDx=0;entryDy=0;exitX=1;exitY=0.5;exitDx=0;exitDy=0;" edge="1" parent="1" source="jg6PKihhKoiaYJXrddcp-15" target="jg6PKihhKoiaYJXrddcp-4">
          <mxGeometry width="50" height="50" relative="1" as="geometry">
            <mxPoint x="1160" y="740" as="sourcePoint" />
            <mxPoint x="1200" y="740" as="targetPoint" />
          </mxGeometry>
        </mxCell>
        <mxCell id="jg6PKihhKoiaYJXrddcp-27" value="" style="endArrow=none;html=1;rounded=0;entryX=0;entryY=0.5;entryDx=0;entryDy=0;exitX=1;exitY=0.5;exitDx=0;exitDy=0;" edge="1" parent="1" source="jg6PKihhKoiaYJXrddcp-17" target="jg6PKihhKoiaYJXrddcp-7">
          <mxGeometry width="50" height="50" relative="1" as="geometry">
            <mxPoint x="1170" y="750" as="sourcePoint" />
            <mxPoint x="1210" y="750" as="targetPoint" />
          </mxGeometry>
        </mxCell>
        <mxCell id="jg6PKihhKoiaYJXrddcp-28" value="" style="endArrow=none;html=1;rounded=0;entryX=0;entryY=0.5;entryDx=0;entryDy=0;exitX=1;exitY=0.5;exitDx=0;exitDy=0;" edge="1" parent="1" source="jg6PKihhKoiaYJXrddcp-19" target="jg6PKihhKoiaYJXrddcp-6">
          <mxGeometry width="50" height="50" relative="1" as="geometry">
            <mxPoint x="1180" y="760" as="sourcePoint" />
            <mxPoint x="1220" y="760" as="targetPoint" />
          </mxGeometry>
        </mxCell>
        <mxCell id="jg6PKihhKoiaYJXrddcp-29" value="" style="group" vertex="1" connectable="0" parent="1">
          <mxGeometry x="1340" y="570" width="120" height="60" as="geometry" />
        </mxCell>
        <mxCell id="jg6PKihhKoiaYJXrddcp-3" value="" style="rounded=0;whiteSpace=wrap;html=1;" vertex="1" parent="jg6PKihhKoiaYJXrddcp-29">
          <mxGeometry width="120" height="60" as="geometry" />
        </mxCell>
        <mxCell id="jg6PKihhKoiaYJXrddcp-18" value="AutoID" style="rhombus;whiteSpace=wrap;html=1;" vertex="1" parent="jg6PKihhKoiaYJXrddcp-29">
          <mxGeometry x="20" y="10" width="80" height="40" as="geometry" />
        </mxCell>
        <mxCell id="jg6PKihhKoiaYJXrddcp-30" value="Marke" style="rounded=0;whiteSpace=wrap;html=1;" vertex="1" parent="1">
          <mxGeometry x="1340" y="490" width="120" height="60" as="geometry" />
        </mxCell>
        <mxCell id="jg6PKihhKoiaYJXrddcp-31" value="VerkÃ¤ufer" style="rounded=0;whiteSpace=wrap;html=1;" vertex="1" parent="1">
          <mxGeometry x="1500" y="570" width="120" height="60" as="geometry" />
        </mxCell>
        <mxCell id="jg6PKihhKoiaYJXrddcp-32" value="Bezeichnung" style="rounded=0;whiteSpace=wrap;html=1;" vertex="1" parent="1">
          <mxGeometry x="1340" y="650" width="120" height="60" as="geometry" />
        </mxCell>
        <mxCell id="jg6PKihhKoiaYJXrddcp-33" value="" style="endArrow=none;html=1;rounded=0;entryX=0.5;entryY=1;entryDx=0;entryDy=0;exitX=0.5;exitY=0;exitDx=0;exitDy=0;" edge="1" parent="1" source="jg6PKihhKoiaYJXrddcp-32" target="jg6PKihhKoiaYJXrddcp-18">
          <mxGeometry width="50" height="50" relative="1" as="geometry">
            <mxPoint x="1140" y="610" as="sourcePoint" />
            <mxPoint x="1350" y="610" as="targetPoint" />
          </mxGeometry>
        </mxCell>
        <mxCell id="jg6PKihhKoiaYJXrddcp-34" value="" style="endArrow=none;html=1;rounded=0;entryX=0;entryY=0.5;entryDx=0;entryDy=0;exitX=1;exitY=0.5;exitDx=0;exitDy=0;" edge="1" parent="1" source="jg6PKihhKoiaYJXrddcp-18" target="jg6PKihhKoiaYJXrddcp-31">
          <mxGeometry width="50" height="50" relative="1" as="geometry">
            <mxPoint x="1150" y="620" as="sourcePoint" />
            <mxPoint x="1360" y="620" as="targetPoint" />
          </mxGeometry>
        </mxCell>
        <mxCell id="jg6PKihhKoiaYJXrddcp-35" value="" style="endArrow=none;html=1;rounded=0;entryX=0.5;entryY=1;entryDx=0;entryDy=0;exitX=0.5;exitY=0;exitDx=0;exitDy=0;" edge="1" parent="1" source="jg6PKihhKoiaYJXrddcp-18" target="jg6PKihhKoiaYJXrddcp-30">
          <mxGeometry width="50" height="50" relative="1" as="geometry">
            <mxPoint x="1160" y="630" as="sourcePoint" />
            <mxPoint x="1370" y="630" as="targetPoint" />
          </mxGeometry>
        </mxCell>
        <mxCell id="jg6PKihhKoiaYJXrddcp-37" value="" style="group" vertex="1" connectable="0" parent="1">
          <mxGeometry x="900" y="570" width="120" height="60" as="geometry" />
        </mxCell>
        <mxCell id="jg6PKihhKoiaYJXrddcp-1" value="" style="rounded=0;whiteSpace=wrap;html=1;" vertex="1" parent="jg6PKihhKoiaYJXrddcp-37">
          <mxGeometry width="120" height="60" as="geometry" />
        </mxCell>
        <mxCell id="jg6PKihhKoiaYJXrddcp-36" value="Auto" style="rhombus;whiteSpace=wrap;html=1;" vertex="1" parent="jg6PKihhKoiaYJXrddcp-37">
          <mxGeometry x="20" y="10" width="80" height="40" as="geometry" />
        </mxCell>
        <mxCell id="jg6PKihhKoiaYJXrddcp-40" value="Werkstattmitarbeiter" style="rounded=0;whiteSpace=wrap;html=1;" vertex="1" parent="1">
          <mxGeometry x="900" y="770" width="120" height="60" as="geometry" />
        </mxCell>
        <mxCell id="jg6PKihhKoiaYJXrddcp-42" value="" style="group" vertex="1" connectable="0" parent="1">
          <mxGeometry x="900" y="670" width="120" height="60" as="geometry" />
        </mxCell>
        <mxCell id="jg6PKihhKoiaYJXrddcp-41" value="" style="rounded=0;whiteSpace=wrap;html=1;" vertex="1" parent="jg6PKihhKoiaYJXrddcp-42">
          <mxGeometry width="120" height="60" as="geometry" />
        </mxCell>
        <mxCell id="jg6PKihhKoiaYJXrddcp-39" value="Ãnderung" style="rhombus;whiteSpace=wrap;html=1;" vertex="1" parent="jg6PKihhKoiaYJXrddcp-42">
          <mxGeometry x="20" y="10" width="80" height="40" as="geometry" />
        </mxCell>
        <mxCell id="jg6PKihhKoiaYJXrddcp-43" value="ÃndArt" style="rhombus;whiteSpace=wrap;html=1;" vertex="1" parent="1">
          <mxGeometry x="760" y="680" width="80" height="40" as="geometry" />
        </mxCell>
        <mxCell id="jg6PKihhKoiaYJXrddcp-44" value="" style="endArrow=none;html=1;rounded=0;exitX=0;exitY=0.5;exitDx=0;exitDy=0;entryX=1;entryY=0.5;entryDx=0;entryDy=0;" edge="1" parent="1" source="jg6PKihhKoiaYJXrddcp-39" target="jg6PKihhKoiaYJXrddcp-43">
          <mxGeometry width="50" height="50" relative="1" as="geometry">
            <mxPoint x="1150" y="730" as="sourcePoint" />
            <mxPoint x="1190" y="730" as="targetPoint" />
          </mxGeometry>
        </mxCell>
        <mxCell id="jg6PKihhKoiaYJXrddcp-45" value="" style="endArrow=none;html=1;rounded=0;exitX=0.5;exitY=1;exitDx=0;exitDy=0;entryX=0.5;entryY=0;entryDx=0;entryDy=0;" edge="1" parent="1" source="jg6PKihhKoiaYJXrddcp-39" target="jg6PKihhKoiaYJXrddcp-40">
          <mxGeometry width="50" height="50" relative="1" as="geometry">
            <mxPoint x="1160" y="740" as="sourcePoint" />
            <mxPoint x="1200" y="740" as="targetPoint" />
          </mxGeometry>
        </mxCell>
        <mxCell id="jg6PKihhKoiaYJXrddcp-46" value="" style="endArrow=none;html=1;rounded=0;exitX=0.5;exitY=1;exitDx=0;exitDy=0;entryX=0.5;entryY=0;entryDx=0;entryDy=0;" edge="1" parent="1" source="jg6PKihhKoiaYJXrddcp-1" target="jg6PKihhKoiaYJXrddcp-39">
          <mxGeometry width="50" height="50" relative="1" as="geometry">
            <mxPoint x="1170" y="750" as="sourcePoint" />
            <mxPoint x="1210" y="750" as="targetPoint" />
          </mxGeometry>
        </mxCell>
        <mxCell id="jg6PKihhKoiaYJXrddcp-47" value="Art" style="rounded=0;whiteSpace=wrap;html=1;" vertex="1" parent="1">
          <mxGeometry x="580" y="670" width="120" height="60" as="geometry" />
        </mxCell>
        <mxCell id="jg6PKihhKoiaYJXrddcp-48" value="" style="endArrow=none;html=1;rounded=0;entryX=0;entryY=0.5;entryDx=0;entryDy=0;exitX=1;exitY=0.5;exitDx=0;exitDy=0;" edge="1" parent="1" source="jg6PKihhKoiaYJXrddcp-47" target="jg6PKihhKoiaYJXrddcp-43">
          <mxGeometry width="50" height="50" relative="1" as="geometry">
            <mxPoint x="1030" y="610" as="sourcePoint" />
            <mxPoint x="1060" y="610" as="targetPoint" />
          </mxGeometry>
        </mxCell>
        <mxCell id="jg6PKihhKoiaYJXrddcp-51" value="" style="group" vertex="1" connectable="0" parent="1">
          <mxGeometry x="900" y="470" width="120" height="60" as="geometry" />
        </mxCell>
        <mxCell id="jg6PKihhKoiaYJXrddcp-50" value="" style="rounded=0;whiteSpace=wrap;html=1;" vertex="1" parent="jg6PKihhKoiaYJXrddcp-51">
          <mxGeometry width="120" height="60" as="geometry" />
        </mxCell>
        <mxCell id="jg6PKihhKoiaYJXrddcp-49" value="Autokauf" style="rhombus;whiteSpace=wrap;html=1;" vertex="1" parent="jg6PKihhKoiaYJXrddcp-51">
          <mxGeometry x="20" y="10" width="80" height="40" as="geometry" />
        </mxCell>
        <mxCell id="jg6PKihhKoiaYJXrddcp-53" value="" style="endArrow=none;html=1;rounded=0;exitX=0.5;exitY=0;exitDx=0;exitDy=0;" edge="1" parent="1" source="jg6PKihhKoiaYJXrddcp-49" target="jg6PKihhKoiaYJXrddcp-55">
          <mxGeometry width="50" height="50" relative="1" as="geometry">
            <mxPoint x="810" y="600" as="sourcePoint" />
            <mxPoint x="860" y="550" as="targetPoint" />
          </mxGeometry>
        </mxCell>
        <mxCell id="jg6PKihhKoiaYJXrddcp-54" value="" style="endArrow=none;html=1;rounded=0;entryX=0.5;entryY=1;entryDx=0;entryDy=0;exitX=0.5;exitY=0;exitDx=0;exitDy=0;" edge="1" parent="1" source="jg6PKihhKoiaYJXrddcp-1" target="jg6PKihhKoiaYJXrddcp-49">
          <mxGeometry width="50" height="50" relative="1" as="geometry">
            <mxPoint x="810" y="600" as="sourcePoint" />
            <mxPoint x="860" y="550" as="targetPoint" />
          </mxGeometry>
        </mxCell>
        <mxCell id="jg6PKihhKoiaYJXrddcp-55" value="KÃ¤ufer" style="rounded=0;whiteSpace=wrap;html=1;" vertex="1" parent="1">
          <mxGeometry x="899.9999999999995" y="350" width="120" height="60" as="geometry" />
        </mxCell>
        <mxCell id="jg6PKihhKoiaYJXrddcp-57" value="Berater" style="rounded=0;whiteSpace=wrap;html=1;" vertex="1" parent="1">
          <mxGeometry x="620" y="410" width="120" height="60" as="geometry" />
        </mxCell>
        <mxCell id="jg6PKihhKoiaYJXrddcp-59" value="Kaufpreis" style="rhombus;whiteSpace=wrap;html=1;" vertex="1" parent="1">
          <mxGeometry x="760" y="580" width="80" height="40" as="geometry" />
        </mxCell>
        <mxCell id="jg6PKihhKoiaYJXrddcp-60" value="Kaufdatum" style="rhombus;whiteSpace=wrap;html=1;" vertex="1" parent="1">
          <mxGeometry x="760" y="480" width="80" height="40" as="geometry" />
        </mxCell>
        <mxCell id="jg6PKihhKoiaYJXrddcp-61" value="Datum" style="rounded=0;whiteSpace=wrap;html=1;dashed=1;" vertex="1" parent="1">
          <mxGeometry x="600" y="480" width="120" height="60" as="geometry" />
        </mxCell>
        <mxCell id="jg6PKihhKoiaYJXrddcp-62" value="Preis" style="rounded=0;whiteSpace=wrap;html=1;dashed=1;" vertex="1" parent="1">
          <mxGeometry x="600" y="560" width="120" height="60" as="geometry" />
        </mxCell>
        <mxCell id="jg6PKihhKoiaYJXrddcp-63" value="Kaufber" style="rhombus;whiteSpace=wrap;html=1;" vertex="1" parent="1">
          <mxGeometry x="770" y="410" width="80" height="40" as="geometry" />
        </mxCell>
        <mxCell id="jg6PKihhKoiaYJXrddcp-64" value="" style="endArrow=none;html=1;rounded=0;exitX=0;exitY=1;exitDx=0;exitDy=0;entryX=1;entryY=0.5;entryDx=0;entryDy=0;" edge="1" parent="1" source="jg6PKihhKoiaYJXrddcp-50" target="jg6PKihhKoiaYJXrddcp-59">
          <mxGeometry width="50" height="50" relative="1" as="geometry">
            <mxPoint x="970" y="640" as="sourcePoint" />
            <mxPoint x="970" y="690" as="targetPoint" />
          </mxGeometry>
        </mxCell>
        <mxCell id="jg6PKihhKoiaYJXrddcp-65" value="" style="endArrow=none;html=1;rounded=0;exitX=0;exitY=0.5;exitDx=0;exitDy=0;entryX=1;entryY=0.5;entryDx=0;entryDy=0;" edge="1" parent="1" source="jg6PKihhKoiaYJXrddcp-59" target="jg6PKihhKoiaYJXrddcp-62">
          <mxGeometry width="50" height="50" relative="1" as="geometry">
            <mxPoint x="910" y="540" as="sourcePoint" />
            <mxPoint x="850" y="610" as="targetPoint" />
          </mxGeometry>
        </mxCell>
        <mxCell id="jg6PKihhKoiaYJXrddcp-66" value="" style="endArrow=none;html=1;rounded=0;exitX=0;exitY=0.5;exitDx=0;exitDy=0;entryX=1;entryY=0.5;entryDx=0;entryDy=0;" edge="1" parent="1" source="jg6PKihhKoiaYJXrddcp-63" target="jg6PKihhKoiaYJXrddcp-57">
          <mxGeometry width="50" height="50" relative="1" as="geometry">
            <mxPoint x="770" y="610" as="sourcePoint" />
            <mxPoint x="730" y="600" as="targetPoint" />
          </mxGeometry>
        </mxCell>
        <mxCell id="jg6PKihhKoiaYJXrddcp-67" value="" style="endArrow=none;html=1;rounded=0;exitX=0;exitY=0;exitDx=0;exitDy=0;entryX=1;entryY=0.5;entryDx=0;entryDy=0;" edge="1" parent="1" source="jg6PKihhKoiaYJXrddcp-50" target="jg6PKihhKoiaYJXrddcp-63">
          <mxGeometry width="50" height="50" relative="1" as="geometry">
            <mxPoint x="780" y="620" as="sourcePoint" />
            <mxPoint x="740" y="610" as="targetPoint" />
          </mxGeometry>
        </mxCell>
        <mxCell id="jg6PKihhKoiaYJXrddcp-68" value="" style="endArrow=none;html=1;rounded=0;exitX=0;exitY=0.5;exitDx=0;exitDy=0;entryX=1;entryY=0.5;entryDx=0;entryDy=0;" edge="1" parent="1" source="jg6PKihhKoiaYJXrddcp-60" target="jg6PKihhKoiaYJXrddcp-61">
          <mxGeometry width="50" height="50" relative="1" as="geometry">
            <mxPoint x="790" y="630" as="sourcePoint" />
            <mxPoint x="750" y="620" as="targetPoint" />
          </mxGeometry>
        </mxCell>
        <mxCell id="jg6PKihhKoiaYJXrddcp-69" value="" style="endArrow=none;html=1;rounded=0;exitX=0;exitY=0.5;exitDx=0;exitDy=0;entryX=1;entryY=0.5;entryDx=0;entryDy=0;" edge="1" parent="1" source="jg6PKihhKoiaYJXrddcp-50" target="jg6PKihhKoiaYJXrddcp-60">
          <mxGeometry width="50" height="50" relative="1" as="geometry">
            <mxPoint x="800" y="640" as="sourcePoint" />
            <mxPoint x="760" y="630" as="targetPoint" />
          </mxGeometry>
        </mxCell>
        <mxCell id="jg6PKihhKoiaYJXrddcp-71" value="" style="endArrow=classic;html=1;rounded=0;exitX=1;exitY=0.5;exitDx=0;exitDy=0;entryX=0;entryY=0.5;entryDx=0;entryDy=0;" edge="1" parent="1" source="jg6PKihhKoiaYJXrddcp-55" target="jg6PKihhKoiaYJXrddcp-72">
          <mxGeometry width="50" height="50" relative="1" as="geometry">
            <mxPoint x="1190" y="640" as="sourcePoint" />
            <mxPoint x="1310" y="400" as="targetPoint" />
          </mxGeometry>
        </mxCell>
        <mxCell id="jg6PKihhKoiaYJXrddcp-72" value="and" style="ellipse;whiteSpace=wrap;html=1;aspect=fixed;" vertex="1" parent="1">
          <mxGeometry x="1510" y="390" width="80" height="80" as="geometry" />
        </mxCell>
        <mxCell id="jg6PKihhKoiaYJXrddcp-73" value="" style="endArrow=classic;html=1;rounded=0;exitX=0.5;exitY=0;exitDx=0;exitDy=0;entryX=0.5;entryY=1;entryDx=0;entryDy=0;" edge="1" parent="1" source="jg6PKihhKoiaYJXrddcp-31" target="jg6PKihhKoiaYJXrddcp-72">
          <mxGeometry width="50" height="50" relative="1" as="geometry">
            <mxPoint x="1030" y="390" as="sourcePoint" />
            <mxPoint x="1520" y="440" as="targetPoint" />
          </mxGeometry>
        </mxCell>
        <mxCell id="jg6PKihhKoiaYJXrddcp-75" value="Kunde" style="rounded=0;whiteSpace=wrap;html=1;" vertex="1" parent="1">
          <mxGeometry x="1490" y="210" width="120" height="60" as="geometry" />
        </mxCell>
        <mxCell id="jg6PKihhKoiaYJXrddcp-76" value="" style="endArrow=classic;html=1;rounded=0;exitX=0.5;exitY=0;exitDx=0;exitDy=0;entryX=0.5;entryY=1;entryDx=0;entryDy=0;" edge="1" parent="1" source="jg6PKihhKoiaYJXrddcp-72" target="jg6PKihhKoiaYJXrddcp-75">
          <mxGeometry width="50" height="50" relative="1" as="geometry">
            <mxPoint x="1030" y="390" as="sourcePoint" />
            <mxPoint x="1520" y="440" as="targetPoint" />
          </mxGeometry>
        </mxCell>
        <mxCell id="jg6PKihhKoiaYJXrddcp-77" value="Kundennummer" style="rounded=0;whiteSpace=wrap;html=1;" vertex="1" parent="1">
          <mxGeometry x="1470" y="30" width="120" height="60" as="geometry" />
        </mxCell>
        <mxCell id="jg6PKihhKoiaYJXrddcp-78" value="" style="rhombus;whiteSpace=wrap;html=1;" vertex="1" parent="1">
          <mxGeometry x="1500" y="110" width="80" height="80" as="geometry" />
        </mxCell>
        <mxCell id="jg6PKihhKoiaYJXrddcp-79" value="" style="endArrow=none;html=1;rounded=0;exitX=0.5;exitY=0;exitDx=0;exitDy=0;entryX=0.5;entryY=1;entryDx=0;entryDy=0;" edge="1" parent="1" source="jg6PKihhKoiaYJXrddcp-78" target="jg6PKihhKoiaYJXrddcp-77">
          <mxGeometry width="50" height="50" relative="1" as="geometry">
            <mxPoint x="1190" y="-20" as="sourcePoint" />
            <mxPoint x="1240" y="-70" as="targetPoint" />
          </mxGeometry>
        </mxCell>
        <mxCell id="jg6PKihhKoiaYJXrddcp-80" value="" style="endArrow=none;html=1;rounded=0;exitX=0.5;exitY=0;exitDx=0;exitDy=0;entryX=0.5;entryY=1;entryDx=0;entryDy=0;" edge="1" parent="1" source="jg6PKihhKoiaYJXrddcp-75" target="jg6PKihhKoiaYJXrddcp-78">
          <mxGeometry width="50" height="50" relative="1" as="geometry">
            <mxPoint x="1190" y="-20" as="sourcePoint" />
            <mxPoint x="1240" y="-70" as="targetPoint" />
          </mxGeometry>
        </mxCell>
        <mxCell id="jg6PKihhKoiaYJXrddcp-81" value="Kname" style="rhombus;whiteSpace=wrap;html=1;" vertex="1" parent="1">
          <mxGeometry x="1680" y="220" width="80" height="40" as="geometry" />
        </mxCell>
        <mxCell id="jg6PKihhKoiaYJXrddcp-84" value="" style="group" vertex="1" connectable="0" parent="1">
          <mxGeometry x="1820" y="210" width="120" height="60" as="geometry" />
        </mxCell>
        <mxCell id="jg6PKihhKoiaYJXrddcp-82" value="" style="rounded=0;whiteSpace=wrap;html=1;" vertex="1" parent="jg6PKihhKoiaYJXrddcp-84">
          <mxGeometry width="120" height="60" as="geometry" />
        </mxCell>
        <mxCell id="jg6PKihhKoiaYJXrddcp-83" value="Name" style="rhombus;whiteSpace=wrap;html=1;" vertex="1" parent="jg6PKihhKoiaYJXrddcp-84">
          <mxGeometry x="20" y="10" width="80" height="40" as="geometry" />
        </mxCell>
        <mxCell id="jg6PKihhKoiaYJXrddcp-85" value="Vorname" style="rounded=0;whiteSpace=wrap;html=1;" vertex="1" parent="1">
          <mxGeometry x="1810" y="100" width="120" height="60" as="geometry" />
        </mxCell>
        <mxCell id="jg6PKihhKoiaYJXrddcp-86" value="Nachname" style="rounded=0;whiteSpace=wrap;html=1;" vertex="1" parent="1">
          <mxGeometry x="1820" y="310" width="120" height="60" as="geometry" />
        </mxCell>
        <mxCell id="jg6PKihhKoiaYJXrddcp-87" value="" style="endArrow=none;html=1;rounded=0;entryX=0;entryY=0.5;entryDx=0;entryDy=0;exitX=1;exitY=0.5;exitDx=0;exitDy=0;" edge="1" parent="1" source="jg6PKihhKoiaYJXrddcp-81" target="jg6PKihhKoiaYJXrddcp-82">
          <mxGeometry width="50" height="50" relative="1" as="geometry">
            <mxPoint x="1560" y="350" as="sourcePoint" />
            <mxPoint x="1610" y="300" as="targetPoint" />
          </mxGeometry>
        </mxCell>
        <mxCell id="jg6PKihhKoiaYJXrddcp-88" value="" style="endArrow=none;html=1;rounded=0;exitX=0.5;exitY=0;exitDx=0;exitDy=0;entryX=0.5;entryY=1;entryDx=0;entryDy=0;" edge="1" parent="1" source="jg6PKihhKoiaYJXrddcp-86" target="jg6PKihhKoiaYJXrddcp-83">
          <mxGeometry width="50" height="50" relative="1" as="geometry">
            <mxPoint x="1560" y="350" as="sourcePoint" />
            <mxPoint x="1610" y="300" as="targetPoint" />
          </mxGeometry>
        </mxCell>
        <mxCell id="jg6PKihhKoiaYJXrddcp-89" value="" style="endArrow=none;html=1;rounded=0;entryX=0.5;entryY=1;entryDx=0;entryDy=0;exitX=0.5;exitY=0;exitDx=0;exitDy=0;" edge="1" parent="1" source="jg6PKihhKoiaYJXrddcp-83" target="jg6PKihhKoiaYJXrddcp-85">
          <mxGeometry width="50" height="50" relative="1" as="geometry">
            <mxPoint x="1560" y="350" as="sourcePoint" />
            <mxPoint x="1610" y="300" as="targetPoint" />
          </mxGeometry>
        </mxCell>
        <mxCell id="jg6PKihhKoiaYJXrddcp-90" value="" style="endArrow=none;html=1;rounded=0;entryX=0;entryY=0.5;entryDx=0;entryDy=0;exitX=1;exitY=0.5;exitDx=0;exitDy=0;" edge="1" parent="1" source="jg6PKihhKoiaYJXrddcp-75" target="jg6PKihhKoiaYJXrddcp-81">
          <mxGeometry width="50" height="50" relative="1" as="geometry">
            <mxPoint x="1560" y="350" as="sourcePoint" />
            <mxPoint x="1610" y="300" as="targetPoint" />
          </mxGeometry>
        </mxCell>
        <mxCell id="jg6PKihhKoiaYJXrddcp-91" value="xor" style="ellipse;whiteSpace=wrap;html=1;aspect=fixed;" vertex="1" parent="1">
          <mxGeometry x="390" y="750" width="80" height="80" as="geometry" />
        </mxCell>
        <mxCell id="jg6PKihhKoiaYJXrddcp-95" value="" style="endArrow=classic;html=1;rounded=0;" edge="1" parent="1" source="jg6PKihhKoiaYJXrddcp-57" target="jg6PKihhKoiaYJXrddcp-91">
          <mxGeometry width="50" height="50" relative="1" as="geometry">
            <mxPoint x="610" y="770" as="sourcePoint" />
            <mxPoint x="660" y="720" as="targetPoint" />
          </mxGeometry>
        </mxCell>
        <mxCell id="jg6PKihhKoiaYJXrddcp-96" value="" style="endArrow=classic;html=1;rounded=0;exitX=0;exitY=0.5;exitDx=0;exitDy=0;" edge="1" parent="1" source="jg6PKihhKoiaYJXrddcp-40" target="jg6PKihhKoiaYJXrddcp-91">
          <mxGeometry width="50" height="50" relative="1" as="geometry">
            <mxPoint x="610" y="770" as="sourcePoint" />
            <mxPoint x="660" y="720" as="targetPoint" />
          </mxGeometry>
        </mxCell>
        <mxCell id="jg6PKihhKoiaYJXrddcp-97" value="Mitarbeiter" style="rounded=0;whiteSpace=wrap;html=1;" vertex="1" parent="1">
          <mxGeometry x="130" y="770" width="120" height="60" as="geometry" />
        </mxCell>
        <mxCell id="jg6PKihhKoiaYJXrddcp-98" value="" style="endArrow=none;html=1;rounded=0;exitX=1;exitY=0.5;exitDx=0;exitDy=0;entryX=0;entryY=0.5;entryDx=0;entryDy=0;startArrow=classic;startFill=1;" edge="1" parent="1" source="jg6PKihhKoiaYJXrddcp-97" target="jg6PKihhKoiaYJXrddcp-91">
          <mxGeometry width="50" height="50" relative="1" as="geometry">
            <mxPoint x="610" y="770" as="sourcePoint" />
            <mxPoint x="660" y="720" as="targetPoint" />
          </mxGeometry>
        </mxCell>
        <mxCell id="jg6PKihhKoiaYJXrddcp-99" value="EMail" style="rounded=0;whiteSpace=wrap;html=1;" vertex="1" parent="1">
          <mxGeometry x="130" y="970" width="120" height="60" as="geometry" />
        </mxCell>
        <mxCell id="jg6PKihhKoiaYJXrddcp-100" value="" style="rhombus;whiteSpace=wrap;html=1;" vertex="1" parent="1">
          <mxGeometry x="140" y="870" width="80" height="80" as="geometry" />
        </mxCell>
        <mxCell id="jg6PKihhKoiaYJXrddcp-101" value="" style="endArrow=none;html=1;rounded=0;exitX=0.5;exitY=0;exitDx=0;exitDy=0;entryX=0.5;entryY=1;entryDx=0;entryDy=0;" edge="1" parent="1" source="jg6PKihhKoiaYJXrddcp-100" target="jg6PKihhKoiaYJXrddcp-97">
          <mxGeometry width="50" height="50" relative="1" as="geometry">
            <mxPoint x="350" y="860" as="sourcePoint" />
            <mxPoint x="400" y="810" as="targetPoint" />
          </mxGeometry>
        </mxCell>
        <mxCell id="jg6PKihhKoiaYJXrddcp-102" value="" style="endArrow=none;html=1;rounded=0;exitX=0.5;exitY=0;exitDx=0;exitDy=0;entryX=0.5;entryY=1;entryDx=0;entryDy=0;" edge="1" parent="1" source="jg6PKihhKoiaYJXrddcp-99" target="jg6PKihhKoiaYJXrddcp-100">
          <mxGeometry width="50" height="50" relative="1" as="geometry">
            <mxPoint x="350" y="860" as="sourcePoint" />
            <mxPoint x="400" y="810" as="targetPoint" />
          </mxGeometry>
        </mxCell>
      </root>
    </mxGraphModel>
  </diagram>
</mxfile>
